#!OML:ASF I:\Actors\actors\Patient Classification 1\Patient 1\Session 1\Subject1.ASF
:FULLY-SPECIFIED
:DEGREES
645
root -0.272584 17.6337 8.41249 8.00458 13.4645 -12.9628
lowerback 4.37451 5.66278 3.19818
upperback -0.347124 7.68477 -1.12425
thorax -2.22203 3.78893 -3.37215
lowerneck -6.46572 -0.337456 2.93334
upperneck 15.1787 -2.2699 10.2078
head 5.76107 -0.176754 2.58015
rclavicle -4.13472e-014 4.6118e-014
rhumerus 27.9176 54.2753 -80.4662
rradius 137.083
rwrist -24.4804
rhand -18.739 -64.4406
rfingers 7.12502
rthumb 7.55709 -265.714
lclavicle -4.13472e-014 4.6118e-014
lhumerus 4.54929 -52.0697 93.5503
lradius 147.889
lwrist 32.5048
lhand -54.8689 -1.39951
lfingers 7.12502
lthumb -27.2548 386.651
rfemur -5.72466 12.1536 31.0921
rtibia 6.93403
rfoot -17.6859 -25.1157
rtoes 7.84213
lfemur -5.95741 -41.1202 2.26379
ltibia -2.11141
lfoot -8.58941 40.6096
ltoes -8.14875
646
root -0.262147 17.6342 8.40905 8.10006 13.1593 -12.9225
lowerback 4.57514 5.59895 3.27824
upperback -0.377181 7.61218 -1.06369
thorax -2.36865 3.74762 -3.37595
lowerneck -7.1669 -0.415256 2.02744
upperneck 15.7939 -2.47725 10.9056
head 6.09982 -0.229301 2.94941
rclavicle 2.54444e-014 1.43125e-014
rhumerus 27.9337 54.2449 -80.2745
rradius 137.108
rwrist -24.3677
rhand -19.2897 -64.3495
rfingers 7.12502
rthumb 7.02554 -265.787
lclavicle 2.54444e-014 1.43125e-014
lhumerus 4.58042 -52.0616 93.429
lradius 147.753
lwrist 32.4914
lhand -55.254 -1.50475
lfingers 7.12502
lthumb -27.6231 386.488
rfemur -5.83548 12.2561 30.9717
rtibia 6.98838
rfoot -17.5832 -24.9313
rtoes 7.50356
lfemur -5.79759 -41.3584 2.09305
ltibia -2.18373
lfoot -8.80108 41.1281
ltoes -7.77564
647
root -0.250927 17.6345 8.40456 8.16729 12.85 -12.9408
lowerback 4.36088 5.15999 2.72525
upperback -0.143834 7.00618 -0.369931
thorax -2.20814 3.46113 -2.30529
lowerneck -7.2529 -0.102158 1.37429
upperneck 15.8086 -1.92197 10.5434
head 6.08679 -0.0288793 2.98267
rclavicle -2.38542e-014 1.90833e-014
rhumerus 28.8519 55.4077 -79.3077
rradius 137.161
rwrist -24.6917
rhand -20.0004 -64.1812
rfingers 7.12502
rthumb 6.33939 -265.934
lclavicle -2.38542e-014 1.90833e-014
lhumerus 4.87773 -50.8516 93.3454
lradius 147.547
lwrist 32.1758
lhand -55.1966 -2.03879
lfingers 7.12502
lthumb -27.5682 385.962
rfemur -5.94584 12.3403 30.9182
rtibia 7.05093
rfoot -17.4437 -24.7465
rtoes 7.17218
lfemur -5.62784 -41.568 1.98149
ltibia -2.24408
lfoot -9.12495 41.6272
ltoes -7.11319
648
root -0.237664 17.6354 8.39826 8.24389 12.4779 -12.9405
lowerback 4.42408 4.91065 2.51506
upperback -0.100422 6.6751 0.0311573
thorax -2.28906 3.29911 -1.7716
lowerneck -7.57657 -0.0387464 0.575291
upperneck 16.1758 -1.78989 10.5921
head 6.2532 0.0121987 3.1498
rclavicle 8.54774e-014 -3.97569e-014
rhumerus 29.0315 56.1587 -79.0407
rradius 137.189
rwrist -24.657
rhand -21.056 -63.7458
rfingers 7.12502
rthumb 5.32028 -266.341
lclavicle 8.54774e-014 -3.97569e-014
lhumerus 4.89416 -50.3284 93.3801
lradius 147.329
lwrist 32.0137
lhand -54.9719 -2.97372
lfingers 7.12502
lthumb -27.3533 385.061
rfemur -6.09429 12.3597 30.8265
rtibia 7.16089
rfoot -17.2377 -24.483
rtoes 6.80409
lfemur -5.43378 -41.8373 1.81074
ltibia -2.27915
lfoot -9.62999 42.232
ltoes -6.17674
649
root -0.222594 17.6354 8.39216 8.34027 12.0435 -12.9135
lowerback 4.30796 4.5906 2.11175
upperback 0.049555 6.23661 0.55979
thorax -2.19146 3.09057 -0.973057
lowerneck -7.96802 0.0631395 -0.285138
upperneck 16.5288 -1.57766 10.5645
head 6.42122 0.0803517 3.31063
rclavicle 3.89618e-014 5.80451e-014
rhumerus 29.4849 57.1027 -78.4776
rradius 137.23
rwrist -24.4905
rhand -21.8783 -62.9345
rfingers 7.12502
rthumb 4.52625 -267.134
lclavicle 3.89618e-014 5.80451e-014
lhumerus 5.08334 -49.5317 93.2903
lradius 147.051
lwrist 31.8342
lhand -54.7943 -3.8032
lfingers 7.12502
lthumb -27.1834 384.259
rfemur -6.27265 12.3175 30.6838
rtibia 7.30342
rfoot -16.9617 -24.1031
rtoes 6.29613
lfemur -5.18486 -42.2024 1.55606
ltibia -2.33134
lfoot -10.2074 43.0025
ltoes -5.21774
650
root -0.207984 17.6351 8.38826 8.45614 11.5801 -12.8074
lowerback 4.12077 4.14593 1.56339
upperback 0.277587 5.6243 1.16645
thorax -1.98375 2.79758 0.00366894
lowerneck -8.42157 0.253522 -1.47471
upperneck 16.8027 -1.21324 10.7426
head 6.56491 0.213033 3.60736
rclavicle -2.18663e-015 1.90833e-014
rhumerus 30.3299 58.162 -77.494
rradius 137.33
rwrist -24.4646
rhand -21.4632 -62.8867
rfingers 7.12502
rthumb 4.92713 -267.191
lclavicle -2.18663e-015 1.90833e-014
lhumerus 5.43267 -48.3514 93.0718
lradius 146.713
lwrist 31.6963
lhand -54.6566 -3.91842
lfingers 7.12502
lthumb -27.0517 384.164
rfemur -6.43663 12.3412 30.4499
rtibia 7.4245
rfoot -16.7549 -23.7171
rtoes 6.03821
lfemur -4.87564 -42.6784 1.17344
ltibia -2.39984
lfoot -10.7326 43.8852
ltoes -4.44481
651
root -0.193832 17.6354 8.3853 8.56797 11.0947 -12.6398
lowerback 4.17696 3.69548 1.24208
upperback 0.37839 5.01916 1.59839
thorax -1.98319 2.50111 0.654053
lowerneck -8.83651 0.380493 -2.76218
upperneck 17.0664 -0.932415 11.089
head 6.7009 0.309675 3.97257
rclavicle 3.06128e-014 -2.22639e-014
rhumerus 30.8236 59.008 -76.9374
rradius 137.374
rwrist -24.1461
rhand -20.6622 -64.1106
rfingers 7.12502
rthumb 5.70047 -265.986
lclavicle 3.06128e-014 -2.22639e-014
lhumerus 5.60339 -47.3281 92.8365
lradius 146.351
lwrist 31.8344
lhand -54.7133 -4.48866
lfingers 7.12502
lthumb -27.1059 383.585
rfemur -6.60638 12.442 30.1475
rtibia 7.58259
rfoot -16.6335 -23.3521
rtoes 6.12496
lfemur -4.52294 -43.1899 0.690459
ltibia -2.46625
lfoot -11.2305 44.8057
ltoes -3.85267
652
root -0.179332 17.6353 8.38183 8.65399 10.5974 -12.5251
lowerback 4.25287 3.33456 1.36231
upperback 0.464152 4.54858 1.81661
thorax -1.94375 2.26666 0.83591
lowerneck -9.25181 0.330995 -4.04465
upperneck 17.3065 -0.908992 11.6077
head 6.84834 0.295607 4.37667
rclavicle 4.6118e-014 -1.03368e-014
rhumerus 31.0789 59.3046 -76.691
rradius 137.46
rwrist -23.7375
rhand -20.1224 -65.1453
rfingers 7.12502
rthumb 6.22165 -264.966
lclavicle 4.6118e-014 -1.03368e-014
lhumerus 5.8748 -46.6206 92.3821
lradius 145.948
lwrist 32.2446
lhand -54.7434 -5.29505
lfingers 7.12502
lthumb -27.1347 382.774
rfemur -6.79245 12.5814 29.9082
rtibia 7.78859
rfoot -16.489 -23.024
rtoes 5.86822
lfemur -4.15531 -43.6984 0.250169
ltibia -2.5185
lfoot -11.9383 45.7364
ltoes -2.90675
653
root -0.163108 17.6342 8.37796 8.7397 10.0322 -12.4528
lowerback 4.00633 2.9989 1.40662
upperback 0.753948 4.09575 2.13231
thorax -1.52526 2.04411 1.1845
lowerneck -9.78694 0.229914 -5.17083
upperneck 17.4451 -0.926458 11.9328
head 6.98946 0.255864 4.68809
rclavicle -2.80286e-014 2.38542e-015
rhumerus 31.8733 59.5442 -75.8123
rradius 137.635
rwrist -23.5491
rhand -19.8469 -65.6735
rfingers 7.12502
rthumb 6.48763 -264.446
lclavicle -2.80286e-014 2.38542e-015
lhumerus 6.50725 -45.846 91.7718
lradius 145.524
lwrist 32.5562
lhand -54.5119 -6.12718
lfingers 7.12502
lthumb -26.9132 381.977
rfemur -7.00096 12.6967 29.708
rtibia 8.02382
rfoot -16.3179 -22.6488
rtoes 5.09016
lfemur -3.75282 -44.2376 -0.179665
ltibia -2.55649
lfoot -12.9096 46.6878
ltoes -1.45742
